HIERARCHY
ROOT newVegas:Hips
{
	OFFSET 0.000000 96.479958 0.000000
	CHANNELS 6 Xposition Yposition Zposition Xrotation Yrotation Zrotation
	JOINT newVegas:Pelvis
	{
		OFFSET 0.000000 0.000000 0.000000
		CHANNELS 3 Xrotation Yrotation Zrotation
		JOINT newVegas:LeftUpLeg
		{
			OFFSET 18.735201 -5.666702 -4.541200
			CHANNELS 3 Xrotation Yrotation Zrotation
			JOINT newVegas:LeftLeg
			{
				OFFSET -0.021200 -31.938179 0.493100
				CHANNELS 3 Xrotation Yrotation Zrotation
				JOINT newVegas:LeftFoot
				{
					OFFSET 0.021200 -31.938179 -4.336299
					CHANNELS 3 Xrotation Yrotation Zrotation
					JOINT newVegas:LeftToeBase
					{
						OFFSET 0.943001 -26.722000 15.023500
						CHANNELS 3 Xrotation Yrotation Zrotation
						End Site
						{
							OFFSET 0.000000 30.670183 0.000000
						}
					}
				}
				JOINT newVegas:Left_PantLeg
				{
					OFFSET 0.663870 -9.044666 -1.108900
					CHANNELS 3 Xrotation Yrotation Zrotation
					End Site
					{
						OFFSET 1.415995 20.635357 0.000000
					}
				}
			}
		}
		JOINT newVegas:RightUpLeg
		{
			OFFSET -18.735201 -5.666702 -4.541200
			CHANNELS 3 Xrotation Yrotation Zrotation
			JOINT newVegas:RightLeg
			{
				OFFSET 0.018946 -31.938133 0.493100
				CHANNELS 3 Xrotation Yrotation Zrotation
				JOINT newVegas:RightFoot
				{
					OFFSET -0.018946 -31.938126 -4.336299
					CHANNELS 3 Xrotation Yrotation Zrotation
					JOINT newVegas:RightToeBase
					{
						OFFSET -0.943001 -26.722004 15.023500
						CHANNELS 3 Xrotation Yrotation Zrotation
						End Site
						{
							OFFSET 0.000000 30.670187 0.000000
						}
					}
				}
				JOINT newVegas:Right_PantLeg
				{
					OFFSET -0.661674 -9.044716 -1.108900
					CHANNELS 3 Xrotation Yrotation Zrotation
					End Site
					{
						OFFSET -1.415958 20.635269 0.000000
					}
				}
			}
		}
	}
	JOINT newVegas:Spine
	{
		OFFSET 0.000000 10.199997 -0.299500
		CHANNELS 3 Xrotation Yrotation Zrotation
		JOINT newVegas:Spine1
		{
			OFFSET 0.000000 11.900002 -1.516600
			CHANNELS 3 Xrotation Yrotation Zrotation
			JOINT newVegas:Spine2
			{
				OFFSET 0.000000 13.600006 -2.842500
				CHANNELS 3 Xrotation Yrotation Zrotation
				JOINT newVegas:Neck
				{
					OFFSET 0.000000 9.624100 -2.890100
					CHANNELS 3 Xrotation Yrotation Zrotation
					JOINT newVegas:Head
					{
						OFFSET 0.000000 14.068802 -1.351900
						CHANNELS 3 Xrotation Yrotation Zrotation
						JOINT newVegas:Hair_Back
						{
							OFFSET 0.000000 3.231903 -17.524799
							CHANNELS 3 Xrotation Yrotation Zrotation
							End Site
							{
								OFFSET 0.000000 19.849884 0.000000
							}
						}
						JOINT newVegas:Hair_Front
						{
							OFFSET 0.000000 31.260406 4.573800
							CHANNELS 3 Xrotation Yrotation Zrotation
							JOINT newVegas:Hair_Front1
							{
								OFFSET 0.000000 2.284103 11.993300
								CHANNELS 3 Xrotation Yrotation Zrotation
								JOINT newVegas:Hair_Front2
								{
									OFFSET 0.000000 2.284103 11.993300
									CHANNELS 3 Xrotation Yrotation Zrotation
									End Site
									{
										OFFSET 0.000000 12.208862 0.000000
									}
								}
							}
						}
						JOINT newVegas:Jowel
						{
							OFFSET 0.000000 -7.458206 6.864100
							CHANNELS 3 Xrotation Yrotation Zrotation
							End Site
							{
								OFFSET 0.000000 19.849884 0.000000
							}
						}
					}
				}
				JOINT newVegas:LeftShoulder
				{
					OFFSET 15.263000 10.923401 -0.547700
					CHANNELS 3 Xrotation Yrotation Zrotation
					JOINT newVegas:LeftArm
					{
						OFFSET 25.438599 -2.830597 -13.032500
						CHANNELS 3 Xrotation Yrotation Zrotation
						JOINT newVegas:LeftForeArm
						{
							OFFSET 29.960503 0.000000 0.000000
							CHANNELS 3 Xrotation Yrotation Zrotation
							JOINT newVegas:LeftHand
							{
								OFFSET 27.849251 0.000000 0.000000
								CHANNELS 3 Xrotation Yrotation Zrotation
								JOINT newVegas:LeftHandThumb1
								{
									OFFSET 4.487587 -3.305161 6.305391
									CHANNELS 3 Xrotation Yrotation Zrotation
									JOINT newVegas:LeftHandThumb2
									{
										OFFSET 5.480453 -3.164139 3.164143
										CHANNELS 3 Xrotation Yrotation Zrotation
										JOINT newVegas:LeftHandThumb3
										{
											OFFSET 5.159721 -2.978973 2.978967
											CHANNELS 3 Xrotation Yrotation Zrotation
											End Site
											{
												OFFSET 2.494507 5.926697 1.738678
											}
										}
									}
								}
								JOINT newVegas:LeftHandIndex1
								{
									OFFSET 18.578728 -0.527832 5.208049
									CHANNELS 3 Xrotation Yrotation Zrotation
									JOINT newVegas:LeftHandIndex2
									{
										OFFSET 3.192009 0.000000 0.000000
										CHANNELS 3 Xrotation Yrotation Zrotation
										JOINT newVegas:LeftHandIndex3
										{
											OFFSET 3.835129 0.000000 0.000000
											CHANNELS 3 Xrotation Yrotation Zrotation
											End Site
											{
												OFFSET -0.034599 3.816971 0.371180
											}
										}
									}
								}
								JOINT newVegas:LeftHandMiddle1
								{
									OFFSET 18.476105 0.000000 0.000000
									CHANNELS 3 Xrotation Yrotation Zrotation
									JOINT newVegas:LeftHandMiddle2
									{
										OFFSET 3.324875 0.000000 0.000000
										CHANNELS 3 Xrotation Yrotation Zrotation
										JOINT newVegas:LeftHandMiddle3
										{
											OFFSET 4.596550 0.000000 0.000000
											CHANNELS 3 Xrotation Yrotation Zrotation
											End Site
											{
												OFFSET 0.057701 4.578827 0.399218
											}
										}
									}
								}
								JOINT newVegas:LeftHandRing1
								{
									OFFSET 17.732719 0.121887 -4.201567
									CHANNELS 3 Xrotation Yrotation Zrotation
									JOINT newVegas:LeftHandRing2
									{
										OFFSET 2.733170 0.000000 0.000000
										CHANNELS 3 Xrotation Yrotation Zrotation
										JOINT newVegas:LeftHandRing3
										{
											OFFSET 3.178268 0.000000 0.000000
											CHANNELS 3 Xrotation Yrotation Zrotation
											End Site
											{
												OFFSET 0.119102 3.170624 0.185394
											}
										}
									}
								}
								JOINT newVegas:LeftHandPinky1
								{
									OFFSET 15.989624 -0.606689 -7.535461
									CHANNELS 3 Xrotation Yrotation Zrotation
									JOINT newVegas:LeftHandPinky2
									{
										OFFSET 2.538986 0.000000 0.000000
										CHANNELS 3 Xrotation Yrotation Zrotation
										JOINT newVegas:LeftHandPinky3
										{
											OFFSET 2.593102 0.000000 0.000000
											CHANNELS 3 Xrotation Yrotation Zrotation
											End Site
											{
												OFFSET -0.150902 2.584198 0.152708
											}
										}
									}
								}
							}
							JOINT newVegas:Left_Sleeve
							{
								OFFSET 0.267448 -0.649796 0.577675
								CHANNELS 3 Xrotation Yrotation Zrotation
								End Site
								{
									OFFSET 0.000000 15.991241 0.000000
								}
							}
							JOINT newVegas:Left_CapeC
							{
								OFFSET 15.715958 -8.608795 -6.935905
								CHANNELS 3 Xrotation Yrotation Zrotation
								JOINT newVegas:Left_CapeC1
								{
									OFFSET 0.000000 -8.688499 0.000000
									CHANNELS 3 Xrotation Yrotation Zrotation
									End Site
									{
										OFFSET 0.000000 8.688499 0.000000
									}
								}
							}
						}
						JOINT newVegas:Left_CapeB
						{
							OFFSET 26.118385 -8.608795 -7.079235
							CHANNELS 3 Xrotation Yrotation Zrotation
							JOINT newVegas:Left_CapeB1
							{
								OFFSET 0.000000 -8.688499 0.000000
								CHANNELS 3 Xrotation Yrotation Zrotation
								End Site
								{
									OFFSET 0.000000 8.688499 0.000000
								}
							}
						}
						JOINT newVegas:Left_CapeA
						{
							OFFSET 5.115639 -8.608795 -10.395809
							CHANNELS 3 Xrotation Yrotation Zrotation
							JOINT newVegas:Left_CapeA1
							{
								OFFSET 0.000000 -8.688499 0.000000
								CHANNELS 3 Xrotation Yrotation Zrotation
								End Site
								{
									OFFSET 0.000000 8.688499 0.000000
								}
							}
						}
					}
				}
				JOINT newVegas:RightShoulder
				{
					OFFSET -15.263000 10.923401 -0.547700
					CHANNELS 3 Xrotation Yrotation Zrotation
					JOINT newVegas:RightArm
					{
						OFFSET -25.438599 -2.830597 -13.032500
						CHANNELS 3 Xrotation Yrotation Zrotation
						JOINT newVegas:RightForeArm
						{
							OFFSET -29.960503 0.000000 0.000000
							CHANNELS 3 Xrotation Yrotation Zrotation
							JOINT newVegas:RightHand
							{
								OFFSET -27.849251 0.000000 0.000000
								CHANNELS 3 Xrotation Yrotation Zrotation
								JOINT newVegas:RightHandThumb1
								{
									OFFSET -4.487587 -3.305161 6.305391
									CHANNELS 3 Xrotation Yrotation Zrotation
									JOINT newVegas:RightHandThumb2
									{
										OFFSET -5.480453 -3.164139 3.164143
										CHANNELS 3 Xrotation Yrotation Zrotation
										JOINT newVegas:RightHandThumb3
										{
											OFFSET -5.159721 -2.978973 2.978967
											CHANNELS 3 Xrotation Yrotation Zrotation
											End Site
											{
												OFFSET -2.494507 5.926697 1.738678
											}
										}
									}
								}
								JOINT newVegas:RightHandIndex1
								{
									OFFSET -18.578728 -0.527832 5.208049
									CHANNELS 3 Xrotation Yrotation Zrotation
									JOINT newVegas:RightHandIndex2
									{
										OFFSET -3.192009 0.000000 0.000000
										CHANNELS 3 Xrotation Yrotation Zrotation
										JOINT newVegas:RightHandIndex3
										{
											OFFSET -3.835129 0.000000 0.000000
											CHANNELS 3 Xrotation Yrotation Zrotation
											End Site
											{
												OFFSET 0.034599 3.816971 0.371180
											}
										}
									}
								}
								JOINT newVegas:RightHandMiddle1
								{
									OFFSET -18.476105 0.000000 0.000000
									CHANNELS 3 Xrotation Yrotation Zrotation
									JOINT newVegas:RightHandMiddle2
									{
										OFFSET -3.324875 0.000000 0.000000
										CHANNELS 3 Xrotation Yrotation Zrotation
										JOINT newVegas:RightHandMiddle3
										{
											OFFSET -4.596550 0.000000 0.000000
											CHANNELS 3 Xrotation Yrotation Zrotation
											End Site
											{
												OFFSET -0.057701 4.578827 0.399218
											}
										}
									}
								}
								JOINT newVegas:RightHandRing1
								{
									OFFSET -17.732719 0.121887 -4.201567
									CHANNELS 3 Xrotation Yrotation Zrotation
									JOINT newVegas:RightHandRing2
									{
										OFFSET -2.733170 0.000000 0.000000
										CHANNELS 3 Xrotation Yrotation Zrotation
										JOINT newVegas:RightHandRing3
										{
											OFFSET -3.178268 0.000000 0.000000
											CHANNELS 3 Xrotation Yrotation Zrotation
											End Site
											{
												OFFSET -0.119102 3.170624 0.185394
											}
										}
									}
								}
								JOINT newVegas:RightHandPinky1
								{
									OFFSET -15.989624 -0.606689 -7.535461
									CHANNELS 3 Xrotation Yrotation Zrotation
									JOINT newVegas:RightHandPinky2
									{
										OFFSET -2.538986 0.000000 0.000000
										CHANNELS 3 Xrotation Yrotation Zrotation
										JOINT newVegas:RightHandPinky3
										{
											OFFSET -2.593102 0.000000 0.000000
											CHANNELS 3 Xrotation Yrotation Zrotation
											End Site
											{
												OFFSET 0.150902 2.584198 0.152708
											}
										}
									}
								}
							}
							JOINT newVegas:Right_CapeC
							{
								OFFSET -15.715958 -8.608795 -6.935905
								CHANNELS 3 Xrotation Yrotation Zrotation
								JOINT newVegas:Right_CapeC1
								{
									OFFSET 0.000000 -8.688499 0.000000
									CHANNELS 3 Xrotation Yrotation Zrotation
									End Site
									{
										OFFSET 0.000000 8.688499 0.000000
									}
								}
							}
							JOINT newVegas:Right_Sleeve
							{
								OFFSET -0.267448 -0.649994 0.577675
								CHANNELS 3 Xrotation Yrotation Zrotation
								End Site
								{
									OFFSET 0.000000 15.991302 0.000000
								}
							}
						}
						JOINT newVegas:Right_CapeA
						{
							OFFSET -5.115540 -8.608795 -10.395824
							CHANNELS 3 Xrotation Yrotation Zrotation
							JOINT newVegas:Right_CapeA1
							{
								OFFSET 0.000000 -8.688499 0.000000
								CHANNELS 3 Xrotation Yrotation Zrotation
								End Site
								{
									OFFSET 0.000000 8.688499 0.000000
								}
							}
						}
						JOINT newVegas:Right_CapeB
						{
							OFFSET -26.118187 -8.608795 -7.079266
							CHANNELS 3 Xrotation Yrotation Zrotation
							JOINT newVegas:Right_CapeB1
							{
								OFFSET 0.000000 -8.688499 0.000000
								CHANNELS 3 Xrotation Yrotation Zrotation
								End Site
								{
									OFFSET 0.000000 8.688499 0.000000
								}
							}
						}
					}
				}
				JOINT newVegas:Left_Collar
				{
					OFFSET 18.625099 8.655502 8.828100
					CHANNELS 3 Xrotation Yrotation Zrotation
					JOINT newVegas:Left_Collar1
					{
						OFFSET 14.783401 10.540405 -1.259500
						CHANNELS 3 Xrotation Yrotation Zrotation
						End Site
						{
							OFFSET 0.000000 18.199875 0.000000
						}
					}
				}
				JOINT newVegas:Collar_Back
				{
					OFFSET 0.000000 15.630707 -20.132601
					CHANNELS 3 Xrotation Yrotation Zrotation
					End Site
					{
						OFFSET 0.000000 22.523010 0.000000
					}
				}
				JOINT newVegas:Left_Peck
				{
					OFFSET 17.239599 -5.132599 25.482599
					CHANNELS 3 Xrotation Yrotation Zrotation
					End Site
					{
						OFFSET 0.000000 22.523010 0.000000
					}
				}
				JOINT newVegas:Right_Peck
				{
					OFFSET -17.239599 -5.132202 25.482599
					CHANNELS 3 Xrotation Yrotation Zrotation
					End Site
					{
						OFFSET 0.000000 22.523010 0.000000
					}
				}
				JOINT newVegas:Right_Collar
				{
					OFFSET -18.625099 8.655792 8.828100
					CHANNELS 3 Xrotation Yrotation Zrotation
					JOINT newVegas:Right_Collar1
					{
						OFFSET -14.783401 10.539993 -1.259500
						CHANNELS 3 Xrotation Yrotation Zrotation
						End Site
						{
							OFFSET 0.000000 18.199631 0.000000
						}
					}
				}
			}
		}
		JOINT newVegas:Belly
		{
			OFFSET 0.000000 -6.540398 9.014299
			CHANNELS 3 Xrotation Yrotation Zrotation
			End Site
			{
				OFFSET 0.000000 11.566666 0.000000
			}
		}
	}
	JOINT newVegas:ElvisFacialAnim_Joint
	{
		OFFSET 1.000000 -95.330101 -8.825800
		CHANNELS 3 Xrotation Yrotation Zrotation
		End Site
		{
			OFFSET 0.000000 35.315800 0.000000
		}
	}
}
MOTION
Frames: 4
Frame Time: 0.033333
-2.235892 83.906281 3.579025 -4.909962 -39.657492 -7.486713 0.000000 0.000000 0.000001 -41.270113 14.836269 30.107696 87.642918 -4.997796 -2.045351 -9.152375 -0.175751 -4.690187 0.000003 -0.000000 0.000000 0.000001 -0.000000 -0.000000 -37.143788 -6.245315 10.632841 59.926099 3.252954 -3.565903 -17.440321 3.240974 -5.381127 0.000000 -0.000002 0.000000 0.000001 0.000002 -0.000002 11.522907 0.239067 -2.238766 15.595076 12.411276 3.294512 13.345931 14.586928 4.176075 -2.651326 -1.688221 2.216303 -2.651326 -1.688226 2.216289 -0.000000 0.000002 -0.000000 -2.651320 -1.688206 2.216301 -2.651327 -1.688256 2.216307 0.000001 -0.000002 0.000001 -0.000000 0.000002 -0.000000 -2.970379 -26.857451 -4.218476 -61.506605 -13.821761 -63.871052 -92.196004 19.916946 -73.906007 -26.487824 2.876569 8.451650 0.699125 9.503368 -2.418136 5.975201 12.647548 1.348334 -0.000000 -0.000003 -0.000001 9.479696 -1.289850 -20.785567 0.709473 2.796458 -28.467095 -0.000002 0.000000 -0.000002 10.058161 -1.800693 -20.644761 1.774278 4.200400 -45.781952 0.000006 -0.000001 -0.000001 1.254266 -0.073700 -17.945726 3.754094 5.463639 -68.965274 -0.000003 0.000001 0.000002 -7.938311 1.608990 -6.495734 2.210515 4.583563 -51.475284 -0.000002 -0.000003 -0.000004 -0.000000 -0.000001 0.000001 -0.000000 -0.000001 0.000001 -0.000000 -0.000001 0.000000 0.000001 0.000000 -0.000002 0.000001 -0.000001 -0.000001 0.000001 0.000000 -0.000002 -0.000001 -0.000001 -0.000001 -0.080227 -6.712901 -0.143320 -13.275022 43.012676 51.346388 32.505096 129.563580 -42.420276 5.245390 -1.087724 -9.874414 13.942565 -4.273557 -5.300312 7.113611 -20.767503 -2.619417 0.000002 0.000001 0.000003 0.357849 -5.832725 5.175994 0.094413 -0.933593 11.539629 0.000001 0.000000 0.000000 3.764232 -12.080459 1.143901 5.714146 -4.535784 103.133411 -0.000000 0.000000 -0.000001 -12.155633 -12.623952 9.228285 6.566913 -4.248439 114.232359 0.000001 0.000001 0.000001 -17.635760 -10.496877 3.325475 4.993609 -4.644856 94.147812 -0.000001 -0.000005 0.000002 0.000000 -0.000001 0.000001 0.000002 -0.000000 0.000000 0.000000 -0.000001 -0.000001 0.000002 0.000000 0.000002 0.000002 0.000000 0.000001 0.000002 0.000000 0.000002 0.000002 -0.000000 0.000001 0.000000 -0.000001 0.000001 0.000000 -0.000001 0.000001 0.000000 -0.000001 0.000001 0.000000 -0.000001 0.000001 0.000000 -0.000001 0.000001 0.000000 -0.000001 0.000001 0.000000 -0.000001 0.000001 0.000000 0.000000 -0.000000 0.000000 0.000000 0.000001 
-2.454209 84.918808 8.471087 -4.499125 -41.204028 -7.101511 0.000000 -0.000001 -0.000000 -50.494772 11.531234 32.791458 88.348647 -3.213227 0.719688 -14.117395 -0.258673 -4.739276 0.000002 0.000000 0.000000 0.000001 0.000000 -0.000001 -33.336873 -4.411387 7.700506 58.832463 6.221872 -3.235693 -20.867080 3.193831 -3.945096 0.000000 -0.000003 0.000000 0.000001 -0.000002 -0.000001 10.696806 1.104481 -2.588552 15.817369 12.495533 3.292081 13.543713 14.687700 4.223383 -2.590542 -1.597907 2.217631 -2.590529 -1.597916 2.217644 0.000000 0.000000 0.000002 -2.590589 -1.597885 2.217634 -2.590457 -1.597933 2.217645 -0.000001 0.000000 -0.000001 0.000000 0.000000 0.000002 -3.200246 -25.358331 -4.310830 -61.810746 -14.126574 -65.086034 -93.568271 23.225604 -72.335303 -23.044136 3.547409 7.684992 0.699123 9.503370 -2.418133 5.975201 12.647544 1.348333 0.000001 -0.000001 -0.000001 9.479699 -1.289847 -20.785563 0.709472 2.796459 -28.467098 -0.000001 0.000003 0.000004 10.058164 -1.800689 -20.644762 1.774277 4.200401 -45.781952 -0.000003 0.000000 -0.000002 1.254266 -0.073697 -17.945721 3.754091 5.463640 -68.965274 0.000002 -0.000001 0.000000 -7.938309 1.609001 -6.495731 2.210517 4.583564 -51.475290 0.000001 -0.000003 -0.000005 0.000000 -0.000002 -0.000001 0.000000 -0.000002 -0.000001 0.000000 -0.000002 -0.000001 -0.000000 0.000004 -0.000001 0.000000 0.000003 -0.000001 -0.000000 0.000004 -0.000001 -0.000002 0.000003 0.000000 -0.302317 -5.957819 -0.179739 -12.932272 43.223899 51.567628 33.423421 130.275627 -43.759256 7.123591 -1.467688 -9.305414 13.942566 -4.273555 -5.300310 7.113613 -20.767504 -2.619417 -0.000000 -0.000002 0.000003 0.357849 -5.832729 5.175995 0.094414 -0.933592 11.539629 -0.000001 0.000000 0.000002 3.764231 -12.080457 1.143902 5.714145 -4.535785 103.133411 0.000001 -0.000000 -0.000000 -12.155635 -12.623956 9.228284 6.566916 -4.248440 114.232353 0.000001 0.000000 0.000003 -17.635760 -10.496881 3.325478 4.993616 -4.644862 94.147812 -0.000001 -0.000000 -0.000000 -0.000000 0.000003 0.000001 0.000000 0.000001 0.000001 -0.000000 0.000003 0.000001 -0.000001 0.000000 -0.000001 -0.000000 0.000000 0.000000 -0.000001 0.000000 -0.000001 -0.000000 -0.000000 0.000000 0.000001 0.000001 -0.000002 0.000001 0.000001 -0.000002 0.000001 0.000001 -0.000002 0.000001 0.000001 -0.000002 0.000001 0.000001 -0.000002 0.000001 0.000001 -0.000002 0.000001 0.000001 -0.000002 -0.000000 -0.000001 -0.000000 0.000000 -0.000001 -0.000000 
-2.651077 85.449699 13.535965 -4.021429 -42.929218 -6.713619 0.000000 -0.000002 -0.000000 -55.667876 8.186623 33.863904 85.526065 -3.705869 1.955606 -20.095989 2.600807 -5.351143 0.000000 0.000001 -0.000000 -0.000000 -0.000001 0.000001 -29.891677 -1.331691 5.240221 57.704840 5.724222 -3.338800 -24.526675 4.637416 -0.521846 -0.000000 -0.000003 0.000000 0.000003 -0.000001 -0.000000 9.798451 2.033904 -2.866661 15.960316 12.522112 3.139222 13.705942 14.699826 4.109685 -2.528022 -1.511081 2.219808 -2.528014 -1.511077 2.219808 -0.000000 0.000000 0.000001 -2.528027 -1.511061 2.219803 -2.528030 -1.511073 2.219799 -0.000001 0.000002 -0.000002 -0.000000 0.000000 0.000002 -3.466711 -23.639391 -4.416516 -62.009416 -14.975569 -66.392321 -92.775245 18.277089 -72.279794 -28.082038 3.926967 7.802096 0.699127 9.503372 -2.418131 5.975202 12.647548 1.348333 0.000001 0.000001 -0.000001 9.479699 -1.289850 -20.785569 0.709471 2.796457 -28.467091 0.000002 0.000002 -0.000001 10.058162 -1.800692 -20.644764 1.774277 4.200402 -45.781952 -0.000000 -0.000001 -0.000001 1.254269 -0.073700 -17.945726 3.754093 5.463636 -68.965274 -0.000000 -0.000001 0.000000 -7.938309 1.608994 -6.495732 2.210517 4.583563 -51.475287 -0.000000 -0.000007 -0.000001 0.000000 0.000001 -0.000000 0.000000 0.000001 -0.000000 0.000000 0.000001 -0.000001 0.000003 0.000000 -0.000002 0.000003 -0.000001 -0.000003 0.000003 0.000000 -0.000002 0.000001 -0.000001 -0.000001 -0.540951 -5.185901 -0.221536 -13.644918 42.808036 52.131600 33.399147 130.131715 -43.304970 6.891825 -2.258113 -9.345458 13.942566 -4.273555 -5.300313 7.113607 -20.767499 -2.619420 0.000000 -0.000000 -0.000001 0.357850 -5.832727 5.175994 0.094415 -0.933593 11.539629 -0.000001 0.000000 0.000001 3.764231 -12.080455 1.143902 5.714145 -4.535783 103.133411 0.000000 -0.000001 -0.000000 -12.155632 -12.623954 9.228287 6.566913 -4.248436 114.232353 0.000002 0.000001 -0.000002 -17.635753 -10.496878 3.325477 4.993609 -4.644861 94.147812 -0.000001 -0.000004 0.000001 0.000000 -0.000001 -0.000000 0.000000 -0.000002 0.000000 0.000000 -0.000002 -0.000001 0.000001 0.000000 -0.000001 0.000001 0.000000 -0.000001 0.000001 0.000000 -0.000001 0.000001 -0.000000 -0.000002 -0.000001 -0.000003 0.000001 -0.000001 -0.000003 0.000001 -0.000001 -0.000003 0.000001 -0.000001 -0.000003 0.000001 -0.000001 -0.000003 0.000001 -0.000001 -0.000003 0.000001 -0.000001 -0.000003 0.000001 -0.000000 -0.000002 0.000000 0.000000 -0.000002 -0.000000 
-2.770851 85.394730 18.794308 -3.500251 -44.692595 -6.396162 -0.000000 -0.000000 -0.000000 -58.419230 4.552926 34.786710 78.988262 -1.749402 1.878538 -23.281919 1.598139 -6.312205 0.000000 0.000000 -0.000000 -0.000001 -0.000000 -0.000000 -26.602021 2.532729 2.938425 56.877171 5.033852 -3.479045 -28.483648 4.932841 3.288508 -0.000000 -0.000005 0.000000 -0.000002 0.000002 -0.000003 8.947568 2.999511 -3.054196 16.034153 12.539677 2.951067 13.817124 14.688373 3.942643 -2.467050 -1.428875 2.222352 -2.467030 -1.428872 2.222342 -0.000001 0.000000 0.000001 -2.467123 -1.428871 2.222334 -2.466897 -1.428899 2.222358 0.000001 -0.000001 0.000001 -0.000001 0.000000 0.000001 -3.712942 -21.852874 -4.433028 -62.457832 -15.363894 -67.282486 -94.380879 23.912820 -70.991320 -22.627235 3.828010 7.653877 0.699124 9.503375 -2.418136 5.975202 12.647542 1.348333 0.000001 0.000001 -0.000001 9.479697 -1.289849 -20.785569 0.709473 2.796447 -28.467101 -0.000005 -0.000000 -0.000003 10.058166 -1.800691 -20.644764 1.774276 4.200397 -45.781952 0.000000 -0.000001 -0.000001 1.254265 -0.073699 -17.945723 3.754090 5.463642 -68.965274 0.000003 -0.000001 0.000002 -7.938310 1.608992 -6.495733 2.210517 4.583565 -51.475284 -0.000001 -0.000003 -0.000003 -0.000000 0.000002 -0.000001 -0.000000 0.000002 -0.000001 -0.000000 0.000002 -0.000001 -0.000001 0.000000 0.000003 -0.000001 -0.000001 0.000003 -0.000001 0.000000 0.000003 -0.000003 -0.000001 0.000004 -0.784569 -4.329659 -0.242292 -14.101638 42.436348 52.642075 33.230472 130.147533 -42.871540 6.733575 -3.030156 -9.369970 13.942566 -4.273561 -5.300313 7.113610 -20.767499 -2.619417 -0.000001 -0.000002 -0.000001 0.357849 -5.832726 5.175994 0.094414 -0.933592 11.539632 -0.000001 0.000000 0.000000 3.764232 -12.080456 1.143902 5.714145 -4.535783 103.133411 -0.000000 -0.000000 -0.000003 -12.155634 -12.623954 9.228287 6.566913 -4.248434 114.232359 0.000002 0.000001 -0.000002 -17.635760 -10.496877 3.325478 4.993605 -4.644863 94.147812 -0.000001 -0.000000 -0.000001 -0.000001 -0.000003 -0.000001 -0.000001 -0.000001 -0.000001 -0.000001 -0.000003 -0.000002 0.000001 -0.000001 0.000001 0.000001 0.000000 0.000000 0.000001 -0.000001 0.000001 0.000001 -0.000000 0.000000 -0.000003 0.000001 -0.000001 -0.000003 0.000001 -0.000001 -0.000003 0.000001 -0.000001 -0.000003 0.000001 -0.000001 -0.000003 0.000001 -0.000001 -0.000003 0.000001 -0.000001 -0.000003 0.000001 -0.000001 0.000000 -0.000002 0.000000 -0.000000 -0.000000 -0.000000 
